<svg xmlns="http://www.w3.org/2000/svg" viewBox="0 0 640 512"><!--!Font Awesome Free 6.5.1 by @fontawesome - https://fontawesome.com License - https://fontawesome.com/license/free Copyright 2024 Fonticons, Inc.--><path d="M320 400c-75.9 0-137.3-58.7-142.9-133.1L72.2 185.8c-13.8 17.3-26.5 35.6-36.7 55.6a32.4 32.4 0 0 0 0 29.2C89.7 376.4 197.1 448 320 448c26.9 0 52.9-4 77.9-10.5L346 397.4a144.1 144.1 0 0 1 -26 2.6zm313.8 58.1l-110.6-85.4a331.3 331.3 0 0 0 81.3-102.1 32.4 32.4 0 0 0 0-29.2C550.3 135.6 442.9 64 320 64a308.2 308.2 0 0 0 -147.3 37.7L45.5 3.4A16 16 0 0 0 23 6.2L3.4 31.5A16 16 0 0 0 6.2 53.9l588.4 454.7a16 16 0 0 0 22.5-2.8l19.6-25.3a16 16 0 0 0 -2.8-22.5zm-183.7-142l-39.3-30.4A94.8 94.8 0 0 0 416 256a94.8 94.8 0 0 0 -121.3-92.2A47.7 47.7 0 0 1 304 192a46.6 46.6 0 0 1 -1.5 10l-73.6-56.9A142.3 142.3 0 0 1 320 112a143.9 143.9 0 0 1 144 144c0 21.6-5.3 41.8-13.9 60.1z"/></svg>